<svg width="800" height="480" viewBox="0 0 800 480" fill="none"
     xmlns="http://www.w3.org/2000/svg"
     xmlns:xlink="http://www.w3.org/1999/xlink">

  <defs>
    <style>
      text { font-family: Inter, Arial, Helvetica, sans-serif; }
      .place { font-size: 30px; font-weight: 700; fill: #111827; }
      .date { font-size: 14px; font-weight: 600; fill: #111827; }
      .updated { font-size: 11px; font-weight: 500; fill: #6B7280; }
      .temp { font-size: 62px; font-weight: 700; fill: #111827; }
      .cond { font-size: 18px; font-weight: 700; fill: #111827; }
      .feels { font-size: 13px; font-weight: 500; fill: #6B7280; }
      .slabel { font-size: 11px; font-weight: 700; letter-spacing: 0.04em; fill: #6B7280; }
      .svalue { font-size: 15px; font-weight: 600; fill: #111827; }
      .sec { font-size: 12px; font-weight: 700; letter-spacing: 0.10em; fill: #6B7280; }
      .tidelabel { font-size: 11px; font-weight: 700; letter-spacing: 0.04em; fill: #2563EB; }
      .tidestate { font-size: 13px; font-weight: 700; fill: #111827; }
    </style>
  </defs>

  <rect width="800" height="480" fill="#FFFFFF"/>

  <!-- ================= Header ================= -->
  <text x="24" y="46" class="place">Totnes</text>
  <rect x="25" y="56" width="72" height="5" rx="2.5" fill="#BF0000"/>
  <text x="776" y="38" text-anchor="end" class="date">Sunday 2 August</text>
  <text x="776" y="56" text-anchor="end" class="updated">Updated 09:27</text>

  <!-- ================= Panels ================= -->
  <rect x="24" y="76" width="250" height="380" rx="22" fill="#FFFFFF" stroke="#9CA3AF" stroke-width="1"/>
  <rect x="288" y="76" width="488" height="160" rx="22" fill="#FFFFFF" stroke="#9CA3AF" stroke-width="1"/>
  <rect x="288" y="240" width="488" height="216" rx="22" fill="#FFFFFF" stroke="#9CA3AF" stroke-width="1"/>

  <!-- ================= Left panel: current + stats ================= -->
  <g transform="translate(200.0 88.0) scale(0.6400)"><path d="M28 78 C14 78 6 68 6 55 C6 43 15 34 27 34 C31 20 44 12 58 15 C72 18 81 30 80 43 C92 44 98 54 96 64 C93 75 84 78 74 78 Z" fill="white" stroke="black" stroke-width="5" stroke-linejoin="round"/></g>
  <text x="44" y="150" class="temp">18°</text>
  <text x="44" y="182" class="cond">Overcast</text>
  <text x="44" y="204" class="feels">Feels 17°</text>

  <line x1="44" y1="220" x2="254" y2="220" stroke="#9CA3AF" stroke-width="1"/>

  <!-- Aligned label / value list (compressed to make room for the tide curve) -->
  <text x="44" y="246" class="slabel">HIGH / LOW</text>
  <text x="254" y="246" text-anchor="end" class="svalue">24° / 8°</text>

  <text x="44" y="273" class="slabel">WIND</text>
  <text x="254" y="273" text-anchor="end" class="svalue">5 km/h NE</text>

  <text x="44" y="300" class="slabel">HUMIDITY</text>
  <text x="254" y="300" text-anchor="end" class="svalue">53%</text>

  <text x="44" y="327" class="slabel">SUNRISE</text>
  <text x="254" y="327" text-anchor="end" class="svalue">05:44</text>

  <text x="44" y="354" class="slabel">SUNSET</text>
  <text x="254" y="354" text-anchor="end" class="svalue">20:57</text>

  <line x1="44" y1="368" x2="254" y2="368" stroke="#9CA3AF" stroke-width="1"/>

  <!-- Tide (next high / low water + curve, ADMIRALTY UK Tidal API) -->
  <text x="44" y="385" class="tidelabel">TIDE</text>
  <text x="254" y="385" text-anchor="end" class="tidestate">Falling</text>
  <line x1="44" y1="396" x2="254" y2="396" stroke="#9CA3AF" stroke-width="1" stroke-dasharray="3 3"/><line x1="44" y1="431" x2="254" y2="431" stroke="#9CA3AF" stroke-width="1" stroke-dasharray="3 3"/><line x1="44" y1="413.5" x2="254" y2="413.5" stroke="#D1D5DB" stroke-width="1"/><polyline points="44.0,412.3 48.4,409.4 52.7,406.7 57.1,404.2 61.5,402.1 65.9,400.4 70.3,399.2 74.6,398.5 79.0,398.3 83.4,398.8 87.8,400.1 92.1,401.9 96.5,404.3 100.9,407.2 105.2,410.4 109.6,413.8 114.0,417.3 118.4,420.6 122.8,423.7 127.1,426.3 131.5,428.5 135.9,430.0 140.3,430.9 144.6,431.0 149.0,430.5 153.4,429.5 157.7,428.0 162.1,425.9 166.5,423.5 170.9,420.8 175.3,417.8 179.6,414.6 184.0,411.5 188.4,408.4 192.8,405.4 197.1,402.8 201.5,400.4 205.9,398.6 210.2,397.2 214.6,396.3 219.0,396.0 223.4,396.4 227.8,397.4 232.1,399.2 236.5,401.5 240.9,404.4 245.3,407.7 249.6,411.2 254.0,414.8" fill="none" stroke="#2563EB" stroke-width="2.5" stroke-linecap="round" stroke-linejoin="round"/><line x1="78.9" y1="392" x2="78.9" y2="435" stroke="#111827" stroke-width="0.75" stroke-dasharray="2 2"/><circle cx="78.9" cy="398.3" r="2.3" fill="#111827"/><circle cx="219.1" cy="396.0" r="3.4" fill="#BF0000" stroke="#FFFFFF" stroke-width="1.2"/><circle cx="143.3" cy="431.0" r="3.4" fill="#2563EB" stroke="#FFFFFF" stroke-width="1.2"/>
  <circle cx="49" cy="447" r="3" fill="#2563EB"/><text x="60" y="451" font-family="Inter, Arial, Helvetica, sans-serif" font-size="13" font-weight="600" fill="#111827">14:59</text><text x="104" y="451" font-family="Inter, Arial, Helvetica, sans-serif" font-size="13" font-weight="700" fill="#111827">1.0 m</text><circle cx="155" cy="447" r="3" fill="#BF0000"/><text x="166" y="451" font-family="Inter, Arial, Helvetica, sans-serif" font-size="13" font-weight="600" fill="#111827">21:29</text><text x="210" y="451" font-family="Inter, Arial, Helvetica, sans-serif" font-size="13" font-weight="700" fill="#111827">4.6 m</text>

  <!-- ================= Right top: hourly ================= -->
  <text x="308" y="100" class="sec">NEXT 8 HOURS</text>
  <rect x="308" y="107" width="26" height="3" rx="1.5" fill="#BF0000"/>
  <line x1="364" y1="122" x2="364" y2="230" stroke="#9CA3AF" stroke-width="1"/><line x1="420" y1="122" x2="420" y2="230" stroke="#9CA3AF" stroke-width="1"/><line x1="476" y1="122" x2="476" y2="230" stroke="#9CA3AF" stroke-width="1"/><line x1="532" y1="122" x2="532" y2="230" stroke="#9CA3AF" stroke-width="1"/><line x1="588" y1="122" x2="588" y2="230" stroke="#9CA3AF" stroke-width="1"/><line x1="644" y1="122" x2="644" y2="230" stroke="#9CA3AF" stroke-width="1"/><line x1="700" y1="122" x2="700" y2="230" stroke="#9CA3AF" stroke-width="1"/><text x="336" y="122" text-anchor="middle" font-family="Inter, Arial, Helvetica, sans-serif" font-size="13" font-weight="700" fill="#111827">10</text><rect x="323" y="127" width="26" height="3" rx="1.5" fill="#BF0000"/><g transform="translate(323.0 137.0) scale(0.2600)"><line x1="74.0" y1="50.0" x2="83.0" y2="50.0" stroke="#000000" stroke-width="5" stroke-linecap="round"/><line x1="67.0" y1="67.0" x2="73.3" y2="73.3" stroke="#000000" stroke-width="5" stroke-linecap="round"/><line x1="50.0" y1="74.0" x2="50.0" y2="83.0" stroke="#000000" stroke-width="5" stroke-linecap="round"/><line x1="33.0" y1="67.0" x2="26.7" y2="73.3" stroke="#000000" stroke-width="5" stroke-linecap="round"/><line x1="26.0" y1="50.0" x2="17.0" y2="50.0" stroke="#000000" stroke-width="5" stroke-linecap="round"/><line x1="33.0" y1="33.0" x2="26.7" y2="26.7" stroke="#000000" stroke-width="5" stroke-linecap="round"/><line x1="50.0" y1="26.0" x2="50.0" y2="17.0" stroke="#000000" stroke-width="5" stroke-linecap="round"/><line x1="67.0" y1="33.0" x2="73.3" y2="26.7" stroke="#000000" stroke-width="5" stroke-linecap="round"/><circle cx="50" cy="50" r="18" fill="#FFFF00" stroke="black" stroke-width="3"/></g><text x="336" y="182" text-anchor="middle" font-family="Inter, Arial, Helvetica, sans-serif" font-size="15" font-weight="700" fill="#111827">20°</text><text x="392" y="122" text-anchor="middle" font-family="Inter, Arial, Helvetica, sans-serif" font-size="13" font-weight="700" fill="#111827">11</text><g transform="translate(379.0 137.0) scale(0.2600)"><line x1="74.0" y1="50.0" x2="83.0" y2="50.0" stroke="#000000" stroke-width="5" stroke-linecap="round"/><line x1="67.0" y1="67.0" x2="73.3" y2="73.3" stroke="#000000" stroke-width="5" stroke-linecap="round"/><line x1="50.0" y1="74.0" x2="50.0" y2="83.0" stroke="#000000" stroke-width="5" stroke-linecap="round"/><line x1="33.0" y1="67.0" x2="26.7" y2="73.3" stroke="#000000" stroke-width="5" stroke-linecap="round"/><line x1="26.0" y1="50.0" x2="17.0" y2="50.0" stroke="#000000" stroke-width="5" stroke-linecap="round"/><line x1="33.0" y1="33.0" x2="26.7" y2="26.7" stroke="#000000" stroke-width="5" stroke-linecap="round"/><line x1="50.0" y1="26.0" x2="50.0" y2="17.0" stroke="#000000" stroke-width="5" stroke-linecap="round"/><line x1="67.0" y1="33.0" x2="73.3" y2="26.7" stroke="#000000" stroke-width="5" stroke-linecap="round"/><circle cx="50" cy="50" r="18" fill="#FFFF00" stroke="black" stroke-width="3"/></g><text x="392" y="182" text-anchor="middle" font-family="Inter, Arial, Helvetica, sans-serif" font-size="15" font-weight="700" fill="#111827">22°</text><text x="448" y="122" text-anchor="middle" font-family="Inter, Arial, Helvetica, sans-serif" font-size="13" font-weight="700" fill="#111827">12</text><g transform="translate(435.0 137.0) scale(0.2600)"><line x1="74.0" y1="50.0" x2="83.0" y2="50.0" stroke="#000000" stroke-width="5" stroke-linecap="round"/><line x1="67.0" y1="67.0" x2="73.3" y2="73.3" stroke="#000000" stroke-width="5" stroke-linecap="round"/><line x1="50.0" y1="74.0" x2="50.0" y2="83.0" stroke="#000000" stroke-width="5" stroke-linecap="round"/><line x1="33.0" y1="67.0" x2="26.7" y2="73.3" stroke="#000000" stroke-width="5" stroke-linecap="round"/><line x1="26.0" y1="50.0" x2="17.0" y2="50.0" stroke="#000000" stroke-width="5" stroke-linecap="round"/><line x1="33.0" y1="33.0" x2="26.7" y2="26.7" stroke="#000000" stroke-width="5" stroke-linecap="round"/><line x1="50.0" y1="26.0" x2="50.0" y2="17.0" stroke="#000000" stroke-width="5" stroke-linecap="round"/><line x1="67.0" y1="33.0" x2="73.3" y2="26.7" stroke="#000000" stroke-width="5" stroke-linecap="round"/><circle cx="50" cy="50" r="18" fill="#FFFF00" stroke="black" stroke-width="3"/></g><text x="448" y="182" text-anchor="middle" font-family="Inter, Arial, Helvetica, sans-serif" font-size="15" font-weight="700" fill="#111827">23°</text><text x="504" y="122" text-anchor="middle" font-family="Inter, Arial, Helvetica, sans-serif" font-size="13" font-weight="700" fill="#111827">13</text><g transform="translate(491.0 137.0) scale(0.2600)"><path d="M28 78 C14 78 6 68 6 55 C6 43 15 34 27 34 C31 20 44 12 58 15 C72 18 81 30 80 43 C92 44 98 54 96 64 C93 75 84 78 74 78 Z" fill="white" stroke="black" stroke-width="5" stroke-linejoin="round"/></g><text x="504" y="182" text-anchor="middle" font-family="Inter, Arial, Helvetica, sans-serif" font-size="15" font-weight="700" fill="#111827">23°</text><text x="560" y="122" text-anchor="middle" font-family="Inter, Arial, Helvetica, sans-serif" font-size="13" font-weight="700" fill="#111827">14</text><g transform="translate(547.0 137.0) scale(0.2600)"><path d="M28 78 C14 78 6 68 6 55 C6 43 15 34 27 34 C31 20 44 12 58 15 C72 18 81 30 80 43 C92 44 98 54 96 64 C93 75 84 78 74 78 Z" fill="white" stroke="black" stroke-width="5" stroke-linejoin="round"/></g><text x="560" y="182" text-anchor="middle" font-family="Inter, Arial, Helvetica, sans-serif" font-size="15" font-weight="700" fill="#111827">24°</text><text x="616" y="122" text-anchor="middle" font-family="Inter, Arial, Helvetica, sans-serif" font-size="13" font-weight="700" fill="#111827">15</text><g transform="translate(603.0 137.0) scale(0.2600)"><path d="M28 78 C14 78 6 68 6 55 C6 43 15 34 27 34 C31 20 44 12 58 15 C72 18 81 30 80 43 C92 44 98 54 96 64 C93 75 84 78 74 78 Z" fill="white" stroke="black" stroke-width="5" stroke-linejoin="round"/></g><text x="616" y="182" text-anchor="middle" font-family="Inter, Arial, Helvetica, sans-serif" font-size="15" font-weight="700" fill="#111827">23°</text><text x="672" y="122" text-anchor="middle" font-family="Inter, Arial, Helvetica, sans-serif" font-size="13" font-weight="700" fill="#111827">16</text><g transform="translate(659.0 137.0) scale(0.2600)"><path d="M28 78 C14 78 6 68 6 55 C6 43 15 34 27 34 C31 20 44 12 58 15 C72 18 81 30 80 43 C92 44 98 54 96 64 C93 75 84 78 74 78 Z" fill="white" stroke="black" stroke-width="5" stroke-linejoin="round"/></g><text x="672" y="182" text-anchor="middle" font-family="Inter, Arial, Helvetica, sans-serif" font-size="15" font-weight="700" fill="#111827">23°</text><text x="728" y="122" text-anchor="middle" font-family="Inter, Arial, Helvetica, sans-serif" font-size="13" font-weight="700" fill="#111827">17</text><g transform="translate(715.0 137.0) scale(0.2600)"><path d="M28 78 C14 78 6 68 6 55 C6 43 15 34 27 34 C31 20 44 12 58 15 C72 18 81 30 80 43 C92 44 98 54 96 64 C93 75 84 78 74 78 Z" fill="white" stroke="black" stroke-width="5" stroke-linejoin="round"/></g><text x="728" y="182" text-anchor="middle" font-family="Inter, Arial, Helvetica, sans-serif" font-size="15" font-weight="700" fill="#111827">23°</text><polyline points="336.0,228.0 392.0,219.3 448.0,214.1 504.0,212.1 560.0,210.0 616.0,212.1 672.0,212.6 728.0,213.6" fill="none" stroke="#BF0000" stroke-width="2" stroke-linecap="round" stroke-linejoin="round"/><circle cx="336.0" cy="228.0" r="2.2" fill="#BF0000"/><circle cx="392.0" cy="219.3" r="2.2" fill="#BF0000"/><circle cx="448.0" cy="214.1" r="2.2" fill="#BF0000"/><circle cx="504.0" cy="212.1" r="2.2" fill="#BF0000"/><circle cx="560.0" cy="210.0" r="2.2" fill="#BF0000"/><circle cx="616.0" cy="212.1" r="2.2" fill="#BF0000"/><circle cx="672.0" cy="212.6" r="2.2" fill="#BF0000"/><circle cx="728.0" cy="213.6" r="2.2" fill="#BF0000"/>

  <!-- ================= Right bottom: 7-day ================= -->
  <text x="308" y="264" class="sec">7-DAY FORECAST</text>
  <rect x="308" y="271" width="26" height="3" rx="1.5" fill="#BF0000"/>
  <rect x="300" y="288" width="4" height="15" rx="2" fill="#BF0000"/><text x="312" y="300" font-family="Inter, Arial, Helvetica, sans-serif" font-size="15" font-weight="700" fill="#111827">Today</text><g transform="translate(393.0 284.0) scale(0.2200)"><path d="M28 78 C14 78 6 68 6 55 C6 43 15 34 27 34 C31 20 44 12 58 15 C72 18 81 30 80 43 C92 44 98 54 96 64 C93 75 84 78 74 78 Z" fill="white" stroke="black" stroke-width="5" stroke-linejoin="round"/></g><text x="428" y="300" font-family="Inter, Arial, Helvetica, sans-serif" font-size="12" fill="#6B7280">Cloudy</text><text x="600" y="300" text-anchor="end" font-family="Inter, Arial, Helvetica, sans-serif" font-size="13" fill="#6B7280">8°</text><rect x="612" y="291" width="88" height="5" rx="2.5" fill="#D1D5DB"/><rect x="612.0" y="291" width="65.9" height="5" rx="2.5" fill="#2563EB"/><text x="748" y="300" text-anchor="end" font-family="Inter, Arial, Helvetica, sans-serif" font-size="15" font-weight="700" fill="#111827">24°</text><line x1="308" y1="308" x2="756" y2="308" stroke="#9CA3AF" stroke-width="1"/><text x="312" y="324" font-family="Inter, Arial, Helvetica, sans-serif" font-size="15" font-weight="600" fill="#111827">Mon</text><g transform="translate(393.0 308.0) scale(0.2200)"><path d="M28 78 C14 78 6 68 6 55 C6 43 15 34 27 34 C31 20 44 12 58 15 C72 18 81 30 80 43 C92 44 98 54 96 64 C93 75 84 78 74 78 Z" fill="white" stroke="black" stroke-width="5" stroke-linejoin="round"/><line x1="30" y1="82" x2="26" y2="92" stroke="#2563EB" stroke-width="6" stroke-linecap="round"/><line x1="52" y1="82" x2="48" y2="92" stroke="#2563EB" stroke-width="6" stroke-linecap="round"/><line x1="74" y1="82" x2="70" y2="92" stroke="#2563EB" stroke-width="6" stroke-linecap="round"/></g><text x="428" y="324" font-family="Inter, Arial, Helvetica, sans-serif" font-size="12" fill="#6B7280">Drizzle</text><text x="600" y="324" text-anchor="end" font-family="Inter, Arial, Helvetica, sans-serif" font-size="13" fill="#6B7280">10°</text><rect x="612" y="315" width="88" height="5" rx="2.5" fill="#D1D5DB"/><rect x="620.9" y="315" width="79.1" height="5" rx="2.5" fill="#BF0000"/><text x="748" y="324" text-anchor="end" font-family="Inter, Arial, Helvetica, sans-serif" font-size="15" font-weight="700" fill="#111827">29°</text><line x1="308" y1="332" x2="756" y2="332" stroke="#9CA3AF" stroke-width="1"/><text x="312" y="348" font-family="Inter, Arial, Helvetica, sans-serif" font-size="15" font-weight="600" fill="#111827">Tue</text><g transform="translate(393.0 332.0) scale(0.2200)"><path d="M28 78 C14 78 6 68 6 55 C6 43 15 34 27 34 C31 20 44 12 58 15 C72 18 81 30 80 43 C92 44 98 54 96 64 C93 75 84 78 74 78 Z" fill="white" stroke="black" stroke-width="5" stroke-linejoin="round"/><line x1="30" y1="82" x2="26" y2="92" stroke="#2563EB" stroke-width="6" stroke-linecap="round"/><line x1="52" y1="82" x2="48" y2="92" stroke="#2563EB" stroke-width="6" stroke-linecap="round"/><line x1="74" y1="82" x2="70" y2="92" stroke="#2563EB" stroke-width="6" stroke-linecap="round"/></g><text x="428" y="348" font-family="Inter, Arial, Helvetica, sans-serif" font-size="12" fill="#6B7280">Drizzle</text><text x="556" y="348" text-anchor="end" font-family="Inter, Arial, Helvetica, sans-serif" font-size="12" fill="#2563EB">93%</text><text x="600" y="348" text-anchor="end" font-family="Inter, Arial, Helvetica, sans-serif" font-size="13" fill="#6B7280">17°</text><rect x="612" y="339" width="88" height="5" rx="2.5" fill="#D1D5DB"/><rect x="649.4" y="339" width="29.8" height="5" rx="2.5" fill="#BF0000"/><text x="748" y="348" text-anchor="end" font-family="Inter, Arial, Helvetica, sans-serif" font-size="15" font-weight="700" fill="#111827">24°</text><line x1="308" y1="356" x2="756" y2="356" stroke="#9CA3AF" stroke-width="1"/><text x="312" y="372" font-family="Inter, Arial, Helvetica, sans-serif" font-size="15" font-weight="600" fill="#111827">Wed</text><g transform="translate(393.0 356.0) scale(0.2200)"><path d="M28 78 C14 78 6 68 6 55 C6 43 15 34 27 34 C31 20 44 12 58 15 C72 18 81 30 80 43 C92 44 98 54 96 64 C93 75 84 78 74 78 Z" fill="white" stroke="black" stroke-width="5" stroke-linejoin="round"/><line x1="30" y1="82" x2="26" y2="92" stroke="#2563EB" stroke-width="6" stroke-linecap="round"/><line x1="52" y1="82" x2="48" y2="92" stroke="#2563EB" stroke-width="6" stroke-linecap="round"/><line x1="74" y1="82" x2="70" y2="92" stroke="#2563EB" stroke-width="6" stroke-linecap="round"/></g><text x="428" y="372" font-family="Inter, Arial, Helvetica, sans-serif" font-size="12" fill="#6B7280">Drizzle</text><text x="556" y="372" text-anchor="end" font-family="Inter, Arial, Helvetica, sans-serif" font-size="12" fill="#2563EB">25%</text><text x="600" y="372" text-anchor="end" font-family="Inter, Arial, Helvetica, sans-serif" font-size="13" fill="#6B7280">15°</text><rect x="612" y="363" width="88" height="5" rx="2.5" fill="#D1D5DB"/><rect x="643.0" y="363" width="24.2" height="5" rx="2.5" fill="#111827"/><text x="748" y="372" text-anchor="end" font-family="Inter, Arial, Helvetica, sans-serif" font-size="15" font-weight="700" fill="#111827">21°</text><line x1="308" y1="380" x2="756" y2="380" stroke="#9CA3AF" stroke-width="1"/><text x="312" y="396" font-family="Inter, Arial, Helvetica, sans-serif" font-size="15" font-weight="600" fill="#111827">Thu</text><g transform="translate(393.0 380.0) scale(0.2200)"><path d="M28 78 C14 78 6 68 6 55 C6 43 15 34 27 34 C31 20 44 12 58 15 C72 18 81 30 80 43 C92 44 98 54 96 64 C93 75 84 78 74 78 Z" fill="white" stroke="black" stroke-width="5" stroke-linejoin="round"/></g><text x="428" y="396" font-family="Inter, Arial, Helvetica, sans-serif" font-size="12" fill="#6B7280">Cloudy</text><text x="556" y="396" text-anchor="end" font-family="Inter, Arial, Helvetica, sans-serif" font-size="12" fill="#2563EB">20%</text><text x="600" y="396" text-anchor="end" font-family="Inter, Arial, Helvetica, sans-serif" font-size="13" fill="#6B7280">13°</text><rect x="612" y="387" width="88" height="5" rx="2.5" fill="#D1D5DB"/><rect x="634.5" y="387" width="31.9" height="5" rx="2.5" fill="#2563EB"/><text x="748" y="396" text-anchor="end" font-family="Inter, Arial, Helvetica, sans-serif" font-size="15" font-weight="700" fill="#111827">21°</text><line x1="308" y1="404" x2="756" y2="404" stroke="#9CA3AF" stroke-width="1"/><text x="312" y="420" font-family="Inter, Arial, Helvetica, sans-serif" font-size="15" font-weight="600" fill="#111827">Fri</text><g transform="translate(393.0 404.0) scale(0.2200)"><path d="M28 78 C14 78 6 68 6 55 C6 43 15 34 27 34 C31 20 44 12 58 15 C72 18 81 30 80 43 C92 44 98 54 96 64 C93 75 84 78 74 78 Z" fill="white" stroke="black" stroke-width="5" stroke-linejoin="round"/></g><text x="428" y="420" font-family="Inter, Arial, Helvetica, sans-serif" font-size="12" fill="#6B7280">Cloudy</text><text x="556" y="420" text-anchor="end" font-family="Inter, Arial, Helvetica, sans-serif" font-size="12" fill="#2563EB">29%</text><text x="600" y="420" text-anchor="end" font-family="Inter, Arial, Helvetica, sans-serif" font-size="13" fill="#6B7280">13°</text><rect x="612" y="411" width="88" height="5" rx="2.5" fill="#D1D5DB"/><rect x="634.1" y="411" width="34.9" height="5" rx="2.5" fill="#111827"/><text x="748" y="420" text-anchor="end" font-family="Inter, Arial, Helvetica, sans-serif" font-size="15" font-weight="700" fill="#111827">21°</text><line x1="308" y1="428" x2="756" y2="428" stroke="#9CA3AF" stroke-width="1"/><text x="312" y="444" font-family="Inter, Arial, Helvetica, sans-serif" font-size="15" font-weight="600" fill="#111827">Sat</text><g transform="translate(393.0 428.0) scale(0.2200)"><path d="M28 78 C14 78 6 68 6 55 C6 43 15 34 27 34 C31 20 44 12 58 15 C72 18 81 30 80 43 C92 44 98 54 96 64 C93 75 84 78 74 78 Z" fill="white" stroke="black" stroke-width="5" stroke-linejoin="round"/></g><text x="428" y="444" font-family="Inter, Arial, Helvetica, sans-serif" font-size="12" fill="#6B7280">Cloudy</text><text x="556" y="444" text-anchor="end" font-family="Inter, Arial, Helvetica, sans-serif" font-size="12" fill="#2563EB">24%</text><text x="600" y="444" text-anchor="end" font-family="Inter, Arial, Helvetica, sans-serif" font-size="13" fill="#6B7280">14°</text><rect x="612" y="435" width="88" height="5" rx="2.5" fill="#D1D5DB"/><rect x="637.1" y="435" width="33.6" height="5" rx="2.5" fill="#111827"/><text x="748" y="444" text-anchor="end" font-family="Inter, Arial, Helvetica, sans-serif" font-size="15" font-weight="700" fill="#111827">22°</text>
</svg>
