<svg width="800" height="480" viewBox="0 0 800 480" fill="none"
     xmlns="http://www.w3.org/2000/svg"
     xmlns:xlink="http://www.w3.org/1999/xlink">

  <rect width="800" height="480" fill="white"/>

  <!-- ================= Header ================= -->
  <text x="24" y="38" font-family="Arial, Helvetica, sans-serif"
        font-size="26" font-weight="700" fill="black">Totnes</text>
  <text x="776" y="30" text-anchor="end" font-family="Arial, Helvetica, sans-serif"
        font-size="15" fill="black">Tuesday 7 July</text>
  <text x="776" y="48" text-anchor="end" font-family="Arial, Helvetica, sans-serif"
        font-size="12" fill="black">Updated 08:18</text>

  <!-- ================= Panels ================= -->
  <rect x="24" y="52" width="250" height="404" rx="17.5"
        stroke="#BF0000" stroke-width="5"/>
  <rect x="286" y="52" width="490" height="190" rx="17.5"
        stroke="#BF0000" stroke-width="5"/>
  <rect x="286" y="254" width="490" height="202" rx="17.5"
        stroke="#BF0000" stroke-width="5"/>

  <!-- ================= Left panel: current ================= -->
  <g transform="translate(159.0 54.0) scale(0.9200)"><line x1="74.0" y1="50.0" x2="84.0" y2="50.0" stroke="#000000" stroke-width="5" stroke-linecap="round"/><line x1="67.0" y1="67.0" x2="74.0" y2="74.0" stroke="#000000" stroke-width="5" stroke-linecap="round"/><line x1="50.0" y1="74.0" x2="50.0" y2="84.0" stroke="#000000" stroke-width="5" stroke-linecap="round"/><line x1="33.0" y1="67.0" x2="26.0" y2="74.0" stroke="#000000" stroke-width="5" stroke-linecap="round"/><line x1="26.0" y1="50.0" x2="16.0" y2="50.0" stroke="#000000" stroke-width="5" stroke-linecap="round"/><line x1="33.0" y1="33.0" x2="26.0" y2="26.0" stroke="#000000" stroke-width="5" stroke-linecap="round"/><line x1="50.0" y1="26.0" x2="50.0" y2="16.0" stroke="#000000" stroke-width="5" stroke-linecap="round"/><line x1="67.0" y1="33.0" x2="74.0" y2="26.0" stroke="#000000" stroke-width="5" stroke-linecap="round"/><circle cx="50" cy="50" r="17" fill="#FFFF00" stroke="black" stroke-width="3"/></g>

  <text x="44" y="134" font-family="Arial, Helvetica, sans-serif"
        font-size="58" font-weight="700" fill="black">20°</text>
  <text x="44" y="170" font-family="Arial, Helvetica, sans-serif"
        font-size="19" font-weight="700" fill="black">Clear</text>
  <text x="44" y="196" font-family="Arial, Helvetica, sans-serif"
        font-size="15" fill="black">Feels 20°</text>
  <text x="44" y="219" font-family="Arial, Helvetica, sans-serif"
        font-size="15" fill="black">H 32°   L 13°</text>

  <line x1="42" y1="236" x2="256" y2="236" stroke="black" stroke-width="1"/>

  <text x="44" y="262" font-family="Arial, Helvetica, sans-serif"
        font-size="12" font-weight="700" fill="black">WIND</text>
  <text x="44" y="284" font-family="Arial, Helvetica, sans-serif"
        font-size="15" fill="black">1 km/h N</text>
  <g transform="translate(232 288) rotate(191)"><path d="M0 -11 L6 6 L0 2 L-6 6 Z" fill="#BF0000" stroke="black" stroke-width="1" stroke-linejoin="round"/></g>

  <text x="44" y="314" font-family="Arial, Helvetica, sans-serif"
        font-size="12" font-weight="700" fill="black">HUMIDITY</text>
  <text x="44" y="336" font-family="Arial, Helvetica, sans-serif"
        font-size="15" fill="black">63%</text>

  <text x="44" y="366" font-family="Arial, Helvetica, sans-serif"
        font-size="12" font-weight="700" fill="black">SUN</text>
  <text x="44" y="388" font-family="Arial, Helvetica, sans-serif"
        font-size="14" fill="black">Rise 05:12</text>
  <text x="150" y="388" font-family="Arial, Helvetica, sans-serif"
        font-size="14" fill="black">Set 21:27</text>

  <text x="44" y="418" font-family="Arial, Helvetica, sans-serif"
        font-size="12" font-weight="700" fill="black">SEA</text>
  <text x="82" y="418" font-family="Arial, Helvetica, sans-serif"
        font-size="14" fill="black">0.1 m · 10s</text>
  <path d="M 44.0 440.0 L 48.4 437.5 L 52.8 436.0 L 57.3 436.2 L 61.7 438.0 L 66.1 440.7 L 70.5 443.0 L 74.9 444.1 L 79.3 443.5 L 83.8 441.4 L 88.2 438.7 L 92.6 436.6 L 97.0 435.9 L 101.4 436.9 L 105.8 439.3 L 110.3 441.9 L 114.7 443.8 L 119.1 444.0 L 123.5 442.6 L 127.9 440.1 L 132.3 437.5 L 136.8 436.0 L 141.2 436.2 L 145.6 438.0 L 150.0 440.6 L 154.4 443.0 L 158.8 444.1 L 163.3 443.5 L 167.7 441.4 L 172.1 438.7 L 176.5 436.6 L 180.9 435.9 L 185.3 436.9 L 189.8 439.2 L 194.2 441.9 L 198.6 443.7 L 203.0 444.0 L 207.4 442.6 L 211.8 440.1 L 216.3 437.6 L 220.7 436.0 L 225.1 436.2 L 229.5 437.9 L 233.9 440.6 L 238.3 442.9 L 242.8 444.1 L 247.2 443.5 L 251.6 441.5 L 256.0 438.8" fill="none" stroke="#0000FF" stroke-width="3"
        stroke-linecap="round" stroke-linejoin="round"/>

  <!-- ================= Right top: hourly ================= -->
  <text x="300" y="76" font-family="Arial, Helvetica, sans-serif"
        font-size="13" font-weight="700" fill="black">NEXT 8 HOURS</text>
  <text x="314" y="102" text-anchor="middle" font-size="14" font-weight="700" fill="black">09</text><g transform="translate(298.0 118.0) scale(0.3200)"><line x1="74.0" y1="50.0" x2="84.0" y2="50.0" stroke="#000000" stroke-width="5" stroke-linecap="round"/><line x1="67.0" y1="67.0" x2="74.0" y2="74.0" stroke="#000000" stroke-width="5" stroke-linecap="round"/><line x1="50.0" y1="74.0" x2="50.0" y2="84.0" stroke="#000000" stroke-width="5" stroke-linecap="round"/><line x1="33.0" y1="67.0" x2="26.0" y2="74.0" stroke="#000000" stroke-width="5" stroke-linecap="round"/><line x1="26.0" y1="50.0" x2="16.0" y2="50.0" stroke="#000000" stroke-width="5" stroke-linecap="round"/><line x1="33.0" y1="33.0" x2="26.0" y2="26.0" stroke="#000000" stroke-width="5" stroke-linecap="round"/><line x1="50.0" y1="26.0" x2="50.0" y2="16.0" stroke="#000000" stroke-width="5" stroke-linecap="round"/><line x1="67.0" y1="33.0" x2="74.0" y2="26.0" stroke="#000000" stroke-width="5" stroke-linecap="round"/><circle cx="50" cy="50" r="17" fill="#FFFF00" stroke="black" stroke-width="3"/></g><text x="314" y="176" text-anchor="middle" font-size="15" font-weight="700" fill="black">22°</text><text x="372" y="102" text-anchor="middle" font-size="14" font-weight="700" fill="black">10</text><g transform="translate(356.0 118.0) scale(0.3200)"><line x1="74.0" y1="50.0" x2="84.0" y2="50.0" stroke="#000000" stroke-width="5" stroke-linecap="round"/><line x1="67.0" y1="67.0" x2="74.0" y2="74.0" stroke="#000000" stroke-width="5" stroke-linecap="round"/><line x1="50.0" y1="74.0" x2="50.0" y2="84.0" stroke="#000000" stroke-width="5" stroke-linecap="round"/><line x1="33.0" y1="67.0" x2="26.0" y2="74.0" stroke="#000000" stroke-width="5" stroke-linecap="round"/><line x1="26.0" y1="50.0" x2="16.0" y2="50.0" stroke="#000000" stroke-width="5" stroke-linecap="round"/><line x1="33.0" y1="33.0" x2="26.0" y2="26.0" stroke="#000000" stroke-width="5" stroke-linecap="round"/><line x1="50.0" y1="26.0" x2="50.0" y2="16.0" stroke="#000000" stroke-width="5" stroke-linecap="round"/><line x1="67.0" y1="33.0" x2="74.0" y2="26.0" stroke="#000000" stroke-width="5" stroke-linecap="round"/><circle cx="50" cy="50" r="17" fill="#FFFF00" stroke="black" stroke-width="3"/></g><text x="372" y="176" text-anchor="middle" font-size="15" font-weight="700" fill="black">25°</text><text x="430" y="102" text-anchor="middle" font-size="14" font-weight="700" fill="black">11</text><g transform="translate(414.0 118.0) scale(0.3200)"><line x1="74.0" y1="50.0" x2="84.0" y2="50.0" stroke="#000000" stroke-width="5" stroke-linecap="round"/><line x1="67.0" y1="67.0" x2="74.0" y2="74.0" stroke="#000000" stroke-width="5" stroke-linecap="round"/><line x1="50.0" y1="74.0" x2="50.0" y2="84.0" stroke="#000000" stroke-width="5" stroke-linecap="round"/><line x1="33.0" y1="67.0" x2="26.0" y2="74.0" stroke="#000000" stroke-width="5" stroke-linecap="round"/><line x1="26.0" y1="50.0" x2="16.0" y2="50.0" stroke="#000000" stroke-width="5" stroke-linecap="round"/><line x1="33.0" y1="33.0" x2="26.0" y2="26.0" stroke="#000000" stroke-width="5" stroke-linecap="round"/><line x1="50.0" y1="26.0" x2="50.0" y2="16.0" stroke="#000000" stroke-width="5" stroke-linecap="round"/><line x1="67.0" y1="33.0" x2="74.0" y2="26.0" stroke="#000000" stroke-width="5" stroke-linecap="round"/><circle cx="50" cy="50" r="17" fill="#FFFF00" stroke="black" stroke-width="3"/></g><text x="430" y="176" text-anchor="middle" font-size="15" font-weight="700" fill="black">26°</text><text x="488" y="102" text-anchor="middle" font-size="14" font-weight="700" fill="black">12</text><g transform="translate(472.0 118.0) scale(0.3200)"><line x1="74.0" y1="50.0" x2="84.0" y2="50.0" stroke="#000000" stroke-width="5" stroke-linecap="round"/><line x1="67.0" y1="67.0" x2="74.0" y2="74.0" stroke="#000000" stroke-width="5" stroke-linecap="round"/><line x1="50.0" y1="74.0" x2="50.0" y2="84.0" stroke="#000000" stroke-width="5" stroke-linecap="round"/><line x1="33.0" y1="67.0" x2="26.0" y2="74.0" stroke="#000000" stroke-width="5" stroke-linecap="round"/><line x1="26.0" y1="50.0" x2="16.0" y2="50.0" stroke="#000000" stroke-width="5" stroke-linecap="round"/><line x1="33.0" y1="33.0" x2="26.0" y2="26.0" stroke="#000000" stroke-width="5" stroke-linecap="round"/><line x1="50.0" y1="26.0" x2="50.0" y2="16.0" stroke="#000000" stroke-width="5" stroke-linecap="round"/><line x1="67.0" y1="33.0" x2="74.0" y2="26.0" stroke="#000000" stroke-width="5" stroke-linecap="round"/><circle cx="50" cy="50" r="17" fill="#FFFF00" stroke="black" stroke-width="3"/></g><text x="488" y="176" text-anchor="middle" font-size="15" font-weight="700" fill="black">27°</text><text x="546" y="102" text-anchor="middle" font-size="14" font-weight="700" fill="black">13</text><g transform="translate(530.0 118.0) scale(0.3200)"><path d="M28 78 C14 78 6 68 6 55 C6 43 15 34 27 34 C31 20 44 12 58 15 C72 18 81 30 80 43 C92 44 98 54 96 64 C93 75 84 78 74 78 Z" fill="white" stroke="black" stroke-width="5" stroke-linejoin="round"/></g><text x="546" y="176" text-anchor="middle" font-size="15" font-weight="700" fill="black">28°</text><text x="604" y="102" text-anchor="middle" font-size="14" font-weight="700" fill="black">14</text><g transform="translate(588.0 118.0) scale(0.3200)"><line x1="74.0" y1="50.0" x2="84.0" y2="50.0" stroke="#000000" stroke-width="5" stroke-linecap="round"/><line x1="67.0" y1="67.0" x2="74.0" y2="74.0" stroke="#000000" stroke-width="5" stroke-linecap="round"/><line x1="50.0" y1="74.0" x2="50.0" y2="84.0" stroke="#000000" stroke-width="5" stroke-linecap="round"/><line x1="33.0" y1="67.0" x2="26.0" y2="74.0" stroke="#000000" stroke-width="5" stroke-linecap="round"/><line x1="26.0" y1="50.0" x2="16.0" y2="50.0" stroke="#000000" stroke-width="5" stroke-linecap="round"/><line x1="33.0" y1="33.0" x2="26.0" y2="26.0" stroke="#000000" stroke-width="5" stroke-linecap="round"/><line x1="50.0" y1="26.0" x2="50.0" y2="16.0" stroke="#000000" stroke-width="5" stroke-linecap="round"/><line x1="67.0" y1="33.0" x2="74.0" y2="26.0" stroke="#000000" stroke-width="5" stroke-linecap="round"/><circle cx="50" cy="50" r="17" fill="#FFFF00" stroke="black" stroke-width="3"/></g><text x="604" y="176" text-anchor="middle" font-size="15" font-weight="700" fill="black">32°</text><text x="662" y="102" text-anchor="middle" font-size="14" font-weight="700" fill="black">15</text><g transform="translate(646.0 118.0) scale(0.3200)"><line x1="74.0" y1="50.0" x2="84.0" y2="50.0" stroke="#000000" stroke-width="5" stroke-linecap="round"/><line x1="67.0" y1="67.0" x2="74.0" y2="74.0" stroke="#000000" stroke-width="5" stroke-linecap="round"/><line x1="50.0" y1="74.0" x2="50.0" y2="84.0" stroke="#000000" stroke-width="5" stroke-linecap="round"/><line x1="33.0" y1="67.0" x2="26.0" y2="74.0" stroke="#000000" stroke-width="5" stroke-linecap="round"/><line x1="26.0" y1="50.0" x2="16.0" y2="50.0" stroke="#000000" stroke-width="5" stroke-linecap="round"/><line x1="33.0" y1="33.0" x2="26.0" y2="26.0" stroke="#000000" stroke-width="5" stroke-linecap="round"/><line x1="50.0" y1="26.0" x2="50.0" y2="16.0" stroke="#000000" stroke-width="5" stroke-linecap="round"/><line x1="67.0" y1="33.0" x2="74.0" y2="26.0" stroke="#000000" stroke-width="5" stroke-linecap="round"/><circle cx="50" cy="50" r="17" fill="#FFFF00" stroke="black" stroke-width="3"/></g><text x="662" y="176" text-anchor="middle" font-size="15" font-weight="700" fill="black">32°</text><text x="720" y="102" text-anchor="middle" font-size="14" font-weight="700" fill="black">16</text><g transform="translate(704.0 118.0) scale(0.3200)"><line x1="74.0" y1="50.0" x2="84.0" y2="50.0" stroke="#000000" stroke-width="5" stroke-linecap="round"/><line x1="67.0" y1="67.0" x2="74.0" y2="74.0" stroke="#000000" stroke-width="5" stroke-linecap="round"/><line x1="50.0" y1="74.0" x2="50.0" y2="84.0" stroke="#000000" stroke-width="5" stroke-linecap="round"/><line x1="33.0" y1="67.0" x2="26.0" y2="74.0" stroke="#000000" stroke-width="5" stroke-linecap="round"/><line x1="26.0" y1="50.0" x2="16.0" y2="50.0" stroke="#000000" stroke-width="5" stroke-linecap="round"/><line x1="33.0" y1="33.0" x2="26.0" y2="26.0" stroke="#000000" stroke-width="5" stroke-linecap="round"/><line x1="50.0" y1="26.0" x2="50.0" y2="16.0" stroke="#000000" stroke-width="5" stroke-linecap="round"/><line x1="67.0" y1="33.0" x2="74.0" y2="26.0" stroke="#000000" stroke-width="5" stroke-linecap="round"/><circle cx="50" cy="50" r="17" fill="#FFFF00" stroke="black" stroke-width="3"/></g><text x="720" y="176" text-anchor="middle" font-size="15" font-weight="700" fill="black">32°</text>

  <!-- ================= Right bottom: 7-day ================= -->
  <text x="300" y="280" font-family="Arial, Helvetica, sans-serif"
        font-size="13" font-weight="700" fill="black">7-DAY FORECAST</text>
  <text x="333" y="308" text-anchor="middle" font-size="14" font-weight="700" fill="black">Today</text><g transform="translate(313.0 328.0) scale(0.4000)"><path d="M28 78 C14 78 6 68 6 55 C6 43 15 34 27 34 C31 20 44 12 58 15 C72 18 81 30 80 43 C92 44 98 54 96 64 C93 75 84 78 74 78 Z" fill="white" stroke="black" stroke-width="5" stroke-linejoin="round"/></g><text x="333" y="396" text-anchor="middle" font-size="15" font-weight="700" fill="black">32°</text><text x="333" y="416" text-anchor="middle" font-size="14" fill="black">13°</text><text x="399" y="308" text-anchor="middle" font-size="14" font-weight="700" fill="black">Wed</text><g transform="translate(379.0 328.0) scale(0.4000)"><line x1="74.0" y1="50.0" x2="84.0" y2="50.0" stroke="#000000" stroke-width="5" stroke-linecap="round"/><line x1="67.0" y1="67.0" x2="74.0" y2="74.0" stroke="#000000" stroke-width="5" stroke-linecap="round"/><line x1="50.0" y1="74.0" x2="50.0" y2="84.0" stroke="#000000" stroke-width="5" stroke-linecap="round"/><line x1="33.0" y1="67.0" x2="26.0" y2="74.0" stroke="#000000" stroke-width="5" stroke-linecap="round"/><line x1="26.0" y1="50.0" x2="16.0" y2="50.0" stroke="#000000" stroke-width="5" stroke-linecap="round"/><line x1="33.0" y1="33.0" x2="26.0" y2="26.0" stroke="#000000" stroke-width="5" stroke-linecap="round"/><line x1="50.0" y1="26.0" x2="50.0" y2="16.0" stroke="#000000" stroke-width="5" stroke-linecap="round"/><line x1="67.0" y1="33.0" x2="74.0" y2="26.0" stroke="#000000" stroke-width="5" stroke-linecap="round"/><circle cx="50" cy="50" r="17" fill="#FFFF00" stroke="black" stroke-width="3"/></g><text x="399" y="396" text-anchor="middle" font-size="15" font-weight="700" fill="black">28°</text><text x="399" y="416" text-anchor="middle" font-size="14" fill="black">11°</text><text x="465" y="308" text-anchor="middle" font-size="14" font-weight="700" fill="black">Thu</text><g transform="translate(445.0 328.0) scale(0.4000)"><line x1="52.0" y1="34.0" x2="60.0" y2="34.0" stroke="#000000" stroke-width="5" stroke-linecap="round"/><line x1="47.3" y1="45.3" x2="53.0" y2="51.0" stroke="#000000" stroke-width="5" stroke-linecap="round"/><line x1="36.0" y1="50.0" x2="36.0" y2="58.0" stroke="#000000" stroke-width="5" stroke-linecap="round"/><line x1="24.7" y1="45.3" x2="19.0" y2="51.0" stroke="#000000" stroke-width="5" stroke-linecap="round"/><line x1="20.0" y1="34.0" x2="12.0" y2="34.0" stroke="#000000" stroke-width="5" stroke-linecap="round"/><line x1="24.7" y1="22.7" x2="19.0" y2="17.0" stroke="#000000" stroke-width="5" stroke-linecap="round"/><line x1="36.0" y1="18.0" x2="36.0" y2="10.0" stroke="#000000" stroke-width="5" stroke-linecap="round"/><line x1="47.3" y1="22.7" x2="53.0" y2="17.0" stroke="#000000" stroke-width="5" stroke-linecap="round"/><circle cx="36" cy="34" r="12" fill="#FFFF00" stroke="black" stroke-width="2.5"/><g transform="translate(14 18)"><path d="M28 78 C14 78 6 68 6 55 C6 43 15 34 27 34 C31 20 44 12 58 15 C72 18 81 30 80 43 C92 44 98 54 96 64 C93 75 84 78 74 78 Z" fill="white" stroke="black" stroke-width="5" stroke-linejoin="round"/></g></g><text x="465" y="396" text-anchor="middle" font-size="15" font-weight="700" fill="black">25°</text><text x="465" y="416" text-anchor="middle" font-size="14" fill="black">14°</text><text x="531" y="308" text-anchor="middle" font-size="14" font-weight="700" fill="black">Fri</text><g transform="translate(511.0 328.0) scale(0.4000)"><path d="M28 78 C14 78 6 68 6 55 C6 43 15 34 27 34 C31 20 44 12 58 15 C72 18 81 30 80 43 C92 44 98 54 96 64 C93 75 84 78 74 78 Z" fill="white" stroke="black" stroke-width="5" stroke-linejoin="round"/></g><text x="531" y="396" text-anchor="middle" font-size="15" font-weight="700" fill="black">22°</text><text x="531" y="416" text-anchor="middle" font-size="14" fill="black">18°</text><text x="597" y="308" text-anchor="middle" font-size="14" font-weight="700" fill="black">Sat</text><g transform="translate(577.0 328.0) scale(0.4000)"><path d="M28 78 C14 78 6 68 6 55 C6 43 15 34 27 34 C31 20 44 12 58 15 C72 18 81 30 80 43 C92 44 98 54 96 64 C93 75 84 78 74 78 Z" fill="white" stroke="black" stroke-width="5" stroke-linejoin="round"/></g><text x="597" y="396" text-anchor="middle" font-size="15" font-weight="700" fill="black">31°</text><text x="597" y="416" text-anchor="middle" font-size="14" fill="black">16°</text><text x="663" y="308" text-anchor="middle" font-size="14" font-weight="700" fill="black">Sun</text><g transform="translate(643.0 328.0) scale(0.4000)"><path d="M28 78 C14 78 6 68 6 55 C6 43 15 34 27 34 C31 20 44 12 58 15 C72 18 81 30 80 43 C92 44 98 54 96 64 C93 75 84 78 74 78 Z" fill="white" stroke="black" stroke-width="5" stroke-linejoin="round"/></g><text x="663" y="396" text-anchor="middle" font-size="15" font-weight="700" fill="black">26°</text><text x="663" y="416" text-anchor="middle" font-size="14" fill="black">19°</text><text x="663" y="438" text-anchor="middle" font-size="12" fill="#0000FF">9%</text><text x="729" y="308" text-anchor="middle" font-size="14" font-weight="700" fill="black">Mon</text><g transform="translate(709.0 328.0) scale(0.4000)"><line x1="52.0" y1="34.0" x2="60.0" y2="34.0" stroke="#000000" stroke-width="5" stroke-linecap="round"/><line x1="47.3" y1="45.3" x2="53.0" y2="51.0" stroke="#000000" stroke-width="5" stroke-linecap="round"/><line x1="36.0" y1="50.0" x2="36.0" y2="58.0" stroke="#000000" stroke-width="5" stroke-linecap="round"/><line x1="24.7" y1="45.3" x2="19.0" y2="51.0" stroke="#000000" stroke-width="5" stroke-linecap="round"/><line x1="20.0" y1="34.0" x2="12.0" y2="34.0" stroke="#000000" stroke-width="5" stroke-linecap="round"/><line x1="24.7" y1="22.7" x2="19.0" y2="17.0" stroke="#000000" stroke-width="5" stroke-linecap="round"/><line x1="36.0" y1="18.0" x2="36.0" y2="10.0" stroke="#000000" stroke-width="5" stroke-linecap="round"/><line x1="47.3" y1="22.7" x2="53.0" y2="17.0" stroke="#000000" stroke-width="5" stroke-linecap="round"/><circle cx="36" cy="34" r="12" fill="#FFFF00" stroke="black" stroke-width="2.5"/><g transform="translate(14 18)"><path d="M28 78 C14 78 6 68 6 55 C6 43 15 34 27 34 C31 20 44 12 58 15 C72 18 81 30 80 43 C92 44 98 54 96 64 C93 75 84 78 74 78 Z" fill="white" stroke="black" stroke-width="5" stroke-linejoin="round"/></g></g><text x="729" y="396" text-anchor="middle" font-size="15" font-weight="700" fill="black">23°</text><text x="729" y="416" text-anchor="middle" font-size="14" fill="black">16°</text><text x="729" y="438" text-anchor="middle" font-size="12" fill="#0000FF">20%</text>
</svg>
