<svg width="800" height="480" viewBox="0 0 800 480" fill="none"
     xmlns="http://www.w3.org/2000/svg"
     xmlns:xlink="http://www.w3.org/1999/xlink">

  <defs>
    <linearGradient id="backgroundWash" x1="0" y1="0" x2="800" y2="480" gradientUnits="userSpaceOnUse">
      <stop offset="0" stop-color="#FFF6F6"/>
      <stop offset="0.42" stop-color="#F7F8FA"/>
      <stop offset="1" stop-color="#EFF6FF"/>
    </linearGradient>

    <style>
      .font { font-family: Inter, Arial, Helvetica, sans-serif; }
      .title { font-size: 24px; font-weight: 700; fill: #111827; }
      .date { font-size: 14px; font-weight: 600; fill: #111827; }
      .updated { font-size: 11px; font-weight: 500; fill: #6B7280; }
      .panel-title { font-size: 12px; font-weight: 700; letter-spacing: 0.08em; fill: #6B7280; }
      .label { font-size: 10px; font-weight: 700; letter-spacing: 0.06em; fill: #6B7280; }
      .body { font-size: 14px; font-weight: 500; fill: #6B7280; }
      .body-strong { font-size: 14px; font-weight: 600; fill: #111827; }
      .small { font-size: 11px; font-weight: 500; fill: #111827; }
    </style>
  </defs>

  <!-- ================= Background ================= -->
  <rect width="800" height="480" fill="url(#backgroundWash)"/>
  <circle cx="56" cy="26" r="120" fill="#FFF1F1" opacity="0.72"/>
  <circle cx="734" cy="418" r="138" fill="#EFF6FF" opacity="0.78"/>

  <!-- ================= Header ================= -->
  <text x="24" y="42" class="font title">Totnes</text>
  <text x="776" y="34" text-anchor="end" class="font date">Wednesday 8 July</text>
  <text x="776" y="52" text-anchor="end" class="font updated">Updated 00:04</text>
  <rect x="24" y="56" width="84" height="5" rx="2.5" fill="#BF0000"/>

  <!-- ================= Panels ================= -->
  <rect x="24" y="72" width="250" height="384" rx="26"
        fill="#FFFFFF" stroke="#9CA3AF" stroke-width="1"/>
  <rect x="286" y="72" width="490" height="170" rx="26"
        fill="#FFFFFF" stroke="#9CA3AF" stroke-width="1"/>
  <rect x="286" y="254" width="490" height="202" rx="26"
        fill="#FFFFFF" stroke="#9CA3AF" stroke-width="1"/>

  <!-- ================= Left panel: current ================= -->
  <rect x="190" y="96" width="58" height="58" rx="18"
        fill="#FFF1F1" stroke="#9CA3AF" stroke-width="1"/>
  <g transform="translate(190 96)">
    <g transform="translate(6.0 6.0) scale(0.4600)"><path d="M64 18 A34 34 0 1 0 64 86 A27 27 0 1 1 64 18 Z" fill="#FFFF00" stroke="black" stroke-width="3" stroke-linejoin="round"/></g>
  </g>

  <text x="44" y="140" class="font" font-size="56" font-weight="700" fill="#111827">18°</text>
  <text x="46" y="186" class="font" font-size="18" font-weight="600" fill="#111827">Clear</text>
  <text x="46" y="215" class="font body">Feels 20°</text>
  <text x="46" y="239" class="font body">H 30°   L 14°</text>

  <line x1="44" y1="250" x2="254" y2="250" stroke="#9CA3AF" stroke-width="1"/>

  <!-- Wind -->
  <rect x="44" y="270" width="100" height="64" rx="14"
        fill="#FAFBFC" stroke="#9CA3AF" stroke-width="1"/>
  <text x="56" y="290" class="font label">WIND</text>
  <text x="56" y="312" class="font body-strong">3 km/h N</text>

  <rect x="151" y="280" width="92" height="40" rx="12"
        fill="#FFF1F1" stroke="#9CA3AF" stroke-width="1"/>
  <g transform="translate(151 280)">
    <g transform="translate(46 20) rotate(194)"><path d="M0 -11 L6 6 L0 2 L-6 6 Z" fill="#BF0000" stroke="black" stroke-width="1" stroke-linejoin="round"/></g>
  </g>

  <!-- Humidity -->
  <rect x="44" y="348" width="100" height="64" rx="14"
        fill="#FAFBFC" stroke="#9CA3AF" stroke-width="1"/>
  <text x="56" y="368" class="font label">HUMIDITY</text>
  <text x="56" y="390" class="font body-strong">88%</text>

  <!-- Sun -->
  <rect x="154" y="348" width="100" height="64" rx="14"
        fill="#FAFBFC" stroke="#9CA3AF" stroke-width="1"/>
  <text x="166" y="368" class="font label">SUN</text>
  <text x="166" y="388" class="font small">Rise 05:14</text>
  <text x="166" y="404" class="font small">Set 21:26</text>

  <!-- Sea -->
  <rect x="44" y="426" width="210" height="22" rx="11"
        fill="#EFF6FF" stroke="#9CA3AF" stroke-width="1"/>
  <text x="55" y="441" class="font" font-size="9" font-weight="700" fill="#2563EB">SEA</text>
  <text x="85" y="441" class="font" font-size="11" font-weight="600" fill="#111827">0.1 m · 10s</text>
  <path d="M 176.0 437.0 L 178.3 435.5 L 180.5 434.5 L 182.8 434.6 L 185.0 435.6 L 187.3 437.2 L 189.5 438.7 L 191.8 439.5 L 194.0 439.3 L 196.3 438.2 L 198.5 436.6 L 200.8 435.2 L 203.0 434.5 L 205.3 434.8 L 207.5 435.9 L 209.8 437.5 L 212.0 438.9 L 214.3 439.6 L 216.5 439.2 L 218.8 437.9 L 221.0 436.3 L 223.3 435.0 L 225.5 434.4 L 227.8 435.0 L 230.0 436.3 L 232.3 437.9 L 234.5 439.2 L 236.8 439.6 L 239.0 438.9 L 241.3 437.5 L 243.5 435.9 L 245.8 434.8 L 248.0 434.5" fill="none" stroke="#2563EB" stroke-width="3"
        stroke-linecap="round" stroke-linejoin="round"/>

  <!-- ================= Right top: hourly ================= -->
  <text x="308" y="102" class="font panel-title">NEXT 8 HOURS</text>
  <rect x="308" y="116" width="446" height="102" rx="18"
        fill="#FAFBFC" stroke="#9CA3AF" stroke-width="1"/>
  <g transform="translate(308 116)">
    <text x="28.0" y="20" text-anchor="middle" font-family="Inter, Arial, Helvetica, sans-serif" font-size="14" font-weight="700" fill="#111827">00</text><g transform="translate(14.0 34.0) scale(0.2800)"><path d="M64 18 A34 34 0 1 0 64 86 A27 27 0 1 1 64 18 Z" fill="#FFFF00" stroke="black" stroke-width="3" stroke-linejoin="round"/></g><text x="28.0" y="80" text-anchor="middle" font-family="Inter, Arial, Helvetica, sans-serif" font-size="15" font-weight="700" fill="#111827">18°</text><text x="83.7" y="20" text-anchor="middle" font-family="Inter, Arial, Helvetica, sans-serif" font-size="14" font-weight="700" fill="#111827">01</text><g transform="translate(69.7 34.0) scale(0.2800)"><path d="M64 18 A34 34 0 1 0 64 86 A27 27 0 1 1 64 18 Z" fill="#FFFF00" stroke="black" stroke-width="3" stroke-linejoin="round"/></g><text x="83.7" y="80" text-anchor="middle" font-family="Inter, Arial, Helvetica, sans-serif" font-size="15" font-weight="700" fill="#111827">17°</text><text x="139.4" y="20" text-anchor="middle" font-family="Inter, Arial, Helvetica, sans-serif" font-size="14" font-weight="700" fill="#111827">02</text><g transform="translate(125.4 34.0) scale(0.2800)"><path d="M64 18 A34 34 0 1 0 64 86 A27 27 0 1 1 64 18 Z" fill="#FFFF00" stroke="black" stroke-width="3" stroke-linejoin="round"/></g><text x="139.4" y="80" text-anchor="middle" font-family="Inter, Arial, Helvetica, sans-serif" font-size="15" font-weight="700" fill="#111827">16°</text><text x="195.1" y="20" text-anchor="middle" font-family="Inter, Arial, Helvetica, sans-serif" font-size="14" font-weight="700" fill="#111827">03</text><g transform="translate(181.1 34.0) scale(0.2800)"><path d="M64 18 A34 34 0 1 0 64 86 A27 27 0 1 1 64 18 Z" fill="#FFFF00" stroke="black" stroke-width="3" stroke-linejoin="round"/></g><text x="195.1" y="80" text-anchor="middle" font-family="Inter, Arial, Helvetica, sans-serif" font-size="15" font-weight="700" fill="#111827">15°</text><text x="250.8" y="20" text-anchor="middle" font-family="Inter, Arial, Helvetica, sans-serif" font-size="14" font-weight="700" fill="#111827">04</text><g transform="translate(236.8 34.0) scale(0.2800)"><path d="M64 18 A34 34 0 1 0 64 86 A27 27 0 1 1 64 18 Z" fill="#FFFF00" stroke="black" stroke-width="3" stroke-linejoin="round"/></g><text x="250.8" y="80" text-anchor="middle" font-family="Inter, Arial, Helvetica, sans-serif" font-size="15" font-weight="700" fill="#111827">15°</text><text x="306.5" y="20" text-anchor="middle" font-family="Inter, Arial, Helvetica, sans-serif" font-size="14" font-weight="700" fill="#111827">05</text><g transform="translate(292.5 34.0) scale(0.2800)"><path d="M64 18 A34 34 0 1 0 64 86 A27 27 0 1 1 64 18 Z" fill="#FFFF00" stroke="black" stroke-width="3" stroke-linejoin="round"/></g><text x="306.5" y="80" text-anchor="middle" font-family="Inter, Arial, Helvetica, sans-serif" font-size="15" font-weight="700" fill="#111827">14°</text><text x="362.2" y="20" text-anchor="middle" font-family="Inter, Arial, Helvetica, sans-serif" font-size="14" font-weight="700" fill="#111827">06</text><g transform="translate(348.2 34.0) scale(0.2800)"><path d="M64 18 A34 34 0 1 0 64 86 A27 27 0 1 1 64 18 Z" fill="#FFFF00" stroke="black" stroke-width="3" stroke-linejoin="round"/></g><text x="362.2" y="80" text-anchor="middle" font-family="Inter, Arial, Helvetica, sans-serif" font-size="15" font-weight="700" fill="#111827">15°</text><text x="417.9" y="20" text-anchor="middle" font-family="Inter, Arial, Helvetica, sans-serif" font-size="14" font-weight="700" fill="#111827">07</text><g transform="translate(403.9 34.0) scale(0.2800)"><line x1="74.0" y1="50.0" x2="84.0" y2="50.0" stroke="#000000" stroke-width="5" stroke-linecap="round"/><line x1="67.0" y1="67.0" x2="74.0" y2="74.0" stroke="#000000" stroke-width="5" stroke-linecap="round"/><line x1="50.0" y1="74.0" x2="50.0" y2="84.0" stroke="#000000" stroke-width="5" stroke-linecap="round"/><line x1="33.0" y1="67.0" x2="26.0" y2="74.0" stroke="#000000" stroke-width="5" stroke-linecap="round"/><line x1="26.0" y1="50.0" x2="16.0" y2="50.0" stroke="#000000" stroke-width="5" stroke-linecap="round"/><line x1="33.0" y1="33.0" x2="26.0" y2="26.0" stroke="#000000" stroke-width="5" stroke-linecap="round"/><line x1="50.0" y1="26.0" x2="50.0" y2="16.0" stroke="#000000" stroke-width="5" stroke-linecap="round"/><line x1="67.0" y1="33.0" x2="74.0" y2="26.0" stroke="#000000" stroke-width="5" stroke-linecap="round"/><circle cx="50" cy="50" r="17" fill="#FFFF00" stroke="black" stroke-width="3"/></g><text x="417.9" y="80" text-anchor="middle" font-family="Inter, Arial, Helvetica, sans-serif" font-size="15" font-weight="700" fill="#111827">17°</text>
  </g>

  <!-- ================= Right bottom: 7-day ================= -->
  <text x="308" y="284" class="font panel-title">7-DAY FORECAST</text>
  <rect x="308" y="298" width="446" height="134" rx="18"
        fill="#FAFBFC" stroke="#9CA3AF" stroke-width="1"/>
  <g transform="translate(308 298)">
    <text x="32.0" y="22" text-anchor="middle" font-family="Inter, Arial, Helvetica, sans-serif" font-size="14" font-weight="700" fill="#111827">Today</text><g transform="translate(15.0 39.0) scale(0.3400)"><path d="M28 78 C14 78 6 68 6 55 C6 43 15 34 27 34 C31 20 44 12 58 15 C72 18 81 30 80 43 C92 44 98 54 96 64 C93 75 84 78 74 78 Z" fill="white" stroke="black" stroke-width="5" stroke-linejoin="round"/></g><text x="32.0" y="98" text-anchor="middle" font-family="Inter, Arial, Helvetica, sans-serif" font-size="15" font-weight="700" fill="#111827">30°</text><text x="32.0" y="116" text-anchor="middle" font-family="Inter, Arial, Helvetica, sans-serif" font-size="14" fill="#6B7280">14°</text><text x="95.7" y="22" text-anchor="middle" font-family="Inter, Arial, Helvetica, sans-serif" font-size="14" font-weight="700" fill="#111827">Fri</text><g transform="translate(78.7 39.0) scale(0.3400)"><path d="M28 78 C14 78 6 68 6 55 C6 43 15 34 27 34 C31 20 44 12 58 15 C72 18 81 30 80 43 C92 44 98 54 96 64 C93 75 84 78 74 78 Z" fill="white" stroke="black" stroke-width="5" stroke-linejoin="round"/></g><text x="95.7" y="98" text-anchor="middle" font-family="Inter, Arial, Helvetica, sans-serif" font-size="15" font-weight="700" fill="#111827">29°</text><text x="95.7" y="116" text-anchor="middle" font-family="Inter, Arial, Helvetica, sans-serif" font-size="14" fill="#6B7280">15°</text><text x="159.4" y="22" text-anchor="middle" font-family="Inter, Arial, Helvetica, sans-serif" font-size="14" font-weight="700" fill="#111827">Sat</text><g transform="translate(142.4 39.0) scale(0.3400)"><line x1="74.0" y1="50.0" x2="84.0" y2="50.0" stroke="#000000" stroke-width="5" stroke-linecap="round"/><line x1="67.0" y1="67.0" x2="74.0" y2="74.0" stroke="#000000" stroke-width="5" stroke-linecap="round"/><line x1="50.0" y1="74.0" x2="50.0" y2="84.0" stroke="#000000" stroke-width="5" stroke-linecap="round"/><line x1="33.0" y1="67.0" x2="26.0" y2="74.0" stroke="#000000" stroke-width="5" stroke-linecap="round"/><line x1="26.0" y1="50.0" x2="16.0" y2="50.0" stroke="#000000" stroke-width="5" stroke-linecap="round"/><line x1="33.0" y1="33.0" x2="26.0" y2="26.0" stroke="#000000" stroke-width="5" stroke-linecap="round"/><line x1="50.0" y1="26.0" x2="50.0" y2="16.0" stroke="#000000" stroke-width="5" stroke-linecap="round"/><line x1="67.0" y1="33.0" x2="74.0" y2="26.0" stroke="#000000" stroke-width="5" stroke-linecap="round"/><circle cx="50" cy="50" r="17" fill="#FFFF00" stroke="black" stroke-width="3"/></g><text x="159.4" y="98" text-anchor="middle" font-family="Inter, Arial, Helvetica, sans-serif" font-size="15" font-weight="700" fill="#111827">27°</text><text x="159.4" y="116" text-anchor="middle" font-family="Inter, Arial, Helvetica, sans-serif" font-size="14" fill="#6B7280">19°</text><text x="223.1" y="22" text-anchor="middle" font-family="Inter, Arial, Helvetica, sans-serif" font-size="14" font-weight="700" fill="#111827">Sun</text><g transform="translate(206.1 39.0) scale(0.3400)"><line x1="74.0" y1="50.0" x2="84.0" y2="50.0" stroke="#000000" stroke-width="5" stroke-linecap="round"/><line x1="67.0" y1="67.0" x2="74.0" y2="74.0" stroke="#000000" stroke-width="5" stroke-linecap="round"/><line x1="50.0" y1="74.0" x2="50.0" y2="84.0" stroke="#000000" stroke-width="5" stroke-linecap="round"/><line x1="33.0" y1="67.0" x2="26.0" y2="74.0" stroke="#000000" stroke-width="5" stroke-linecap="round"/><line x1="26.0" y1="50.0" x2="16.0" y2="50.0" stroke="#000000" stroke-width="5" stroke-linecap="round"/><line x1="33.0" y1="33.0" x2="26.0" y2="26.0" stroke="#000000" stroke-width="5" stroke-linecap="round"/><line x1="50.0" y1="26.0" x2="50.0" y2="16.0" stroke="#000000" stroke-width="5" stroke-linecap="round"/><line x1="67.0" y1="33.0" x2="74.0" y2="26.0" stroke="#000000" stroke-width="5" stroke-linecap="round"/><circle cx="50" cy="50" r="17" fill="#FFFF00" stroke="black" stroke-width="3"/></g><text x="223.1" y="98" text-anchor="middle" font-family="Inter, Arial, Helvetica, sans-serif" font-size="15" font-weight="700" fill="#111827">25°</text><text x="223.1" y="116" text-anchor="middle" font-family="Inter, Arial, Helvetica, sans-serif" font-size="14" fill="#6B7280">20°</text><text x="286.8" y="22" text-anchor="middle" font-family="Inter, Arial, Helvetica, sans-serif" font-size="14" font-weight="700" fill="#111827">Mon</text><g transform="translate(269.8 39.0) scale(0.3400)"><path d="M28 78 C14 78 6 68 6 55 C6 43 15 34 27 34 C31 20 44 12 58 15 C72 18 81 30 80 43 C92 44 98 54 96 64 C93 75 84 78 74 78 Z" fill="white" stroke="black" stroke-width="5" stroke-linejoin="round"/><line x1="26" y1="82" x2="22" y2="92" stroke="#0000FF" stroke-width="5" stroke-linecap="round"/><line x1="50" y1="82" x2="46" y2="92" stroke="#0000FF" stroke-width="5" stroke-linecap="round"/><line x1="74" y1="82" x2="70" y2="92" stroke="#0000FF" stroke-width="5" stroke-linecap="round"/></g><text x="286.8" y="98" text-anchor="middle" font-family="Inter, Arial, Helvetica, sans-serif" font-size="15" font-weight="700" fill="#111827">28°</text><text x="286.8" y="116" text-anchor="middle" font-family="Inter, Arial, Helvetica, sans-serif" font-size="14" fill="#6B7280">20°</text><text x="286.8" y="132" text-anchor="middle" font-family="Inter, Arial, Helvetica, sans-serif" font-size="11" fill="#2563EB">23%</text><text x="350.5" y="22" text-anchor="middle" font-family="Inter, Arial, Helvetica, sans-serif" font-size="14" font-weight="700" fill="#111827">Tue</text><g transform="translate(333.5 39.0) scale(0.3400)"><path d="M28 78 C14 78 6 68 6 55 C6 43 15 34 27 34 C31 20 44 12 58 15 C72 18 81 30 80 43 C92 44 98 54 96 64 C93 75 84 78 74 78 Z" fill="white" stroke="black" stroke-width="5" stroke-linejoin="round"/><line x1="26" y1="82" x2="22" y2="92" stroke="#0000FF" stroke-width="5" stroke-linecap="round"/><line x1="50" y1="82" x2="46" y2="92" stroke="#0000FF" stroke-width="5" stroke-linecap="round"/><line x1="74" y1="82" x2="70" y2="92" stroke="#0000FF" stroke-width="5" stroke-linecap="round"/></g><text x="350.5" y="98" text-anchor="middle" font-family="Inter, Arial, Helvetica, sans-serif" font-size="15" font-weight="700" fill="#111827">24°</text><text x="350.5" y="116" text-anchor="middle" font-family="Inter, Arial, Helvetica, sans-serif" font-size="14" fill="#6B7280">19°</text><text x="350.5" y="132" text-anchor="middle" font-family="Inter, Arial, Helvetica, sans-serif" font-size="11" fill="#2563EB">29%</text><text x="414.2" y="22" text-anchor="middle" font-family="Inter, Arial, Helvetica, sans-serif" font-size="14" font-weight="700" fill="#111827">Wed</text><g transform="translate(397.2 39.0) scale(0.3400)"><path d="M28 78 C14 78 6 68 6 55 C6 43 15 34 27 34 C31 20 44 12 58 15 C72 18 81 30 80 43 C92 44 98 54 96 64 C93 75 84 78 74 78 Z" fill="white" stroke="black" stroke-width="5" stroke-linejoin="round"/><line x1="26" y1="82" x2="22" y2="92" stroke="#0000FF" stroke-width="5" stroke-linecap="round"/><line x1="50" y1="82" x2="46" y2="92" stroke="#0000FF" stroke-width="5" stroke-linecap="round"/><line x1="74" y1="82" x2="70" y2="92" stroke="#0000FF" stroke-width="5" stroke-linecap="round"/></g><text x="414.2" y="98" text-anchor="middle" font-family="Inter, Arial, Helvetica, sans-serif" font-size="15" font-weight="700" fill="#111827">26°</text><text x="414.2" y="116" text-anchor="middle" font-family="Inter, Arial, Helvetica, sans-serif" font-size="14" fill="#6B7280">18°</text><text x="414.2" y="132" text-anchor="middle" font-family="Inter, Arial, Helvetica, sans-serif" font-size="11" fill="#2563EB">20%</text>
  </g>
</svg>
