<svg width="800" height="480" viewBox="0 0 800 480" fill="none"
     xmlns="http://www.w3.org/2000/svg"
     xmlns:xlink="http://www.w3.org/1999/xlink">

  <defs>
    <style>
      text { font-family: Inter, Arial, Helvetica, sans-serif; }
      .place { font-size: 30px; font-weight: 700; fill: #111827; }
      .date { font-size: 14px; font-weight: 600; fill: #111827; }
      .updated { font-size: 11px; font-weight: 500; fill: #6B7280; }
      .temp { font-size: 62px; font-weight: 700; fill: #111827; }
      .cond { font-size: 18px; font-weight: 700; fill: #111827; }
      .feels { font-size: 13px; font-weight: 500; fill: #6B7280; }
      .slabel { font-size: 11px; font-weight: 700; letter-spacing: 0.04em; fill: #6B7280; }
      .svalue { font-size: 15px; font-weight: 600; fill: #111827; }
      .sec { font-size: 12px; font-weight: 700; letter-spacing: 0.10em; fill: #6B7280; }
      .tidelabel { font-size: 11px; font-weight: 700; letter-spacing: 0.04em; fill: #2563EB; }
      .tidestate { font-size: 13px; font-weight: 700; fill: #111827; }
    </style>
  </defs>

  <rect width="800" height="480" fill="#FFFFFF"/>

  <!-- ================= Header ================= -->
  <text x="24" y="46" class="place">Totnes</text>
  <rect x="25" y="56" width="72" height="5" rx="2.5" fill="#BF0000"/>
  <text x="776" y="38" text-anchor="end" class="date">Monday 7 September</text>
  <text x="776" y="56" text-anchor="end" class="updated">Updated 12:53</text>

  <!-- ================= Panels ================= -->
  <rect x="24" y="76" width="250" height="380" rx="22" fill="#FFFFFF" stroke="#9CA3AF" stroke-width="1"/>
  <rect x="288" y="76" width="488" height="160" rx="22" fill="#FFFFFF" stroke="#9CA3AF" stroke-width="1"/>
  <rect x="288" y="240" width="488" height="216" rx="22" fill="#FFFFFF" stroke="#9CA3AF" stroke-width="1"/>

  <!-- ================= Left panel: current + stats ================= -->
  <g transform="translate(200.0 88.0) scale(0.6400)"><path d="M28 78 C14 78 6 68 6 55 C6 43 15 34 27 34 C31 20 44 12 58 15 C72 18 81 30 80 43 C92 44 98 54 96 64 C93 75 84 78 74 78 Z" fill="white" stroke="black" stroke-width="5" stroke-linejoin="round"/></g>
  <text x="44" y="150" class="temp">20°</text>
  <text x="44" y="182" class="cond">Overcast</text>
  <text x="44" y="204" class="feels">Feels 19°</text>

  <line x1="44" y1="220" x2="254" y2="220" stroke="#9CA3AF" stroke-width="1"/>

  <!-- Aligned label / value list (compressed to make room for the tide curve) -->
  <text x="44" y="246" class="slabel">HIGH / LOW</text>
  <text x="254" y="246" text-anchor="end" class="svalue">21° / 16°</text>

  <text x="44" y="273" class="slabel">WIND</text>
  <text x="254" y="273" text-anchor="end" class="svalue">12 km/h W</text>

  <text x="44" y="300" class="slabel">HUMIDITY</text>
  <text x="254" y="300" text-anchor="end" class="svalue">63%</text>

  <text x="44" y="327" class="slabel">SUNRISE</text>
  <text x="254" y="327" text-anchor="end" class="svalue">06:38</text>

  <text x="44" y="354" class="slabel">SUNSET</text>
  <text x="254" y="354" text-anchor="end" class="svalue">19:46</text>

  <line x1="44" y1="368" x2="254" y2="368" stroke="#9CA3AF" stroke-width="1"/>

  <!-- Tide (next high / low water + curve, ADMIRALTY UK Tidal API) -->
  <text x="44" y="385" class="tidelabel">TIDE</text>
  <text x="254" y="385" text-anchor="end" class="tidestate">Rising</text>
  <line x1="44" y1="396" x2="254" y2="396" stroke="#9CA3AF" stroke-width="1" stroke-dasharray="3 3"/><line x1="44" y1="431" x2="254" y2="431" stroke="#9CA3AF" stroke-width="1" stroke-dasharray="3 3"/><line x1="44" y1="413.5" x2="254" y2="413.5" stroke="#D1D5DB" stroke-width="1"/><polyline points="44.0,425.1 48.4,424.2 52.8,422.9 57.1,421.4 61.5,419.6 65.9,417.6 70.3,415.5 74.6,413.3 79.0,411.0 83.4,408.8 87.8,406.5 92.1,404.4 96.5,402.5 100.9,400.7 105.3,399.1 109.6,397.9 114.0,396.9 118.4,396.3 122.8,396.0 127.1,396.1 131.5,396.6 135.9,397.5 140.3,398.7 144.6,400.4 149.0,402.4 153.4,404.6 157.8,407.1 162.1,409.7 166.5,412.4 170.9,415.1 175.3,417.8 179.6,420.4 184.0,422.9 188.4,425.1 192.8,427.0 197.1,428.6 201.5,429.8 205.9,430.6 210.3,431.0 214.6,431.0 219.0,430.6 223.4,429.8 227.8,428.6 232.1,427.2 236.5,425.4 240.9,423.3 245.3,421.1 249.6,418.6 254.0,416.1" fill="none" stroke="#2563EB" stroke-width="2.5" stroke-linecap="round" stroke-linejoin="round"/><line x1="85.8" y1="392" x2="85.8" y2="435" stroke="#111827" stroke-width="0.75" stroke-dasharray="2 2"/><circle cx="85.8" cy="407.5" r="2.3" fill="#111827"/><circle cx="124.3" cy="396.0" r="3.4" fill="#BF0000" stroke="#FFFFFF" stroke-width="1.2"/><circle cx="212.2" cy="431.0" r="3.4" fill="#2563EB" stroke="#FFFFFF" stroke-width="1.2"/>
  <circle cx="49" cy="447" r="3" fill="#BF0000"/><text x="60" y="451" font-family="Inter, Arial, Helvetica, sans-serif" font-size="13" font-weight="600" fill="#111827">15:39</text><text x="104" y="451" font-family="Inter, Arial, Helvetica, sans-serif" font-size="13" font-weight="700" fill="#111827">4.0 m</text><circle cx="155" cy="447" r="3" fill="#2563EB"/><text x="166" y="451" font-family="Inter, Arial, Helvetica, sans-serif" font-size="13" font-weight="600" fill="#111827">21:58</text><text x="210" y="451" font-family="Inter, Arial, Helvetica, sans-serif" font-size="13" font-weight="700" fill="#111827">1.7 m</text>

  <!-- ================= Right top: hourly ================= -->
  <text x="308" y="100" class="sec">NEXT 8 HOURS</text>
  <rect x="308" y="107" width="26" height="3" rx="1.5" fill="#BF0000"/>
  <line x1="364" y1="122" x2="364" y2="230" stroke="#9CA3AF" stroke-width="1"/><line x1="420" y1="122" x2="420" y2="230" stroke="#9CA3AF" stroke-width="1"/><line x1="476" y1="122" x2="476" y2="230" stroke="#9CA3AF" stroke-width="1"/><line x1="532" y1="122" x2="532" y2="230" stroke="#9CA3AF" stroke-width="1"/><line x1="588" y1="122" x2="588" y2="230" stroke="#9CA3AF" stroke-width="1"/><line x1="644" y1="122" x2="644" y2="230" stroke="#9CA3AF" stroke-width="1"/><line x1="700" y1="122" x2="700" y2="230" stroke="#9CA3AF" stroke-width="1"/><text x="336" y="122" text-anchor="middle" font-family="Inter, Arial, Helvetica, sans-serif" font-size="13" font-weight="700" fill="#111827">13</text><rect x="323" y="127" width="26" height="3" rx="1.5" fill="#BF0000"/><g transform="translate(323.0 137.0) scale(0.2600)"><path d="M28 78 C14 78 6 68 6 55 C6 43 15 34 27 34 C31 20 44 12 58 15 C72 18 81 30 80 43 C92 44 98 54 96 64 C93 75 84 78 74 78 Z" fill="white" stroke="black" stroke-width="5" stroke-linejoin="round"/></g><text x="336" y="182" text-anchor="middle" font-family="Inter, Arial, Helvetica, sans-serif" font-size="15" font-weight="700" fill="#111827">20°</text><text x="392" y="122" text-anchor="middle" font-family="Inter, Arial, Helvetica, sans-serif" font-size="13" font-weight="700" fill="#111827">14</text><g transform="translate(379.0 137.0) scale(0.2600)"><path d="M28 78 C14 78 6 68 6 55 C6 43 15 34 27 34 C31 20 44 12 58 15 C72 18 81 30 80 43 C92 44 98 54 96 64 C93 75 84 78 74 78 Z" fill="white" stroke="black" stroke-width="5" stroke-linejoin="round"/></g><text x="392" y="182" text-anchor="middle" font-family="Inter, Arial, Helvetica, sans-serif" font-size="15" font-weight="700" fill="#111827">21°</text><text x="448" y="122" text-anchor="middle" font-family="Inter, Arial, Helvetica, sans-serif" font-size="13" font-weight="700" fill="#111827">15</text><g transform="translate(435.0 137.0) scale(0.2600)"><path d="M28 78 C14 78 6 68 6 55 C6 43 15 34 27 34 C31 20 44 12 58 15 C72 18 81 30 80 43 C92 44 98 54 96 64 C93 75 84 78 74 78 Z" fill="white" stroke="black" stroke-width="5" stroke-linejoin="round"/></g><text x="448" y="182" text-anchor="middle" font-family="Inter, Arial, Helvetica, sans-serif" font-size="15" font-weight="700" fill="#111827">21°</text><text x="504" y="122" text-anchor="middle" font-family="Inter, Arial, Helvetica, sans-serif" font-size="13" font-weight="700" fill="#111827">16</text><g transform="translate(491.0 137.0) scale(0.2600)"><path d="M28 78 C14 78 6 68 6 55 C6 43 15 34 27 34 C31 20 44 12 58 15 C72 18 81 30 80 43 C92 44 98 54 96 64 C93 75 84 78 74 78 Z" fill="white" stroke="black" stroke-width="5" stroke-linejoin="round"/></g><text x="504" y="182" text-anchor="middle" font-family="Inter, Arial, Helvetica, sans-serif" font-size="15" font-weight="700" fill="#111827">20°</text><text x="560" y="122" text-anchor="middle" font-family="Inter, Arial, Helvetica, sans-serif" font-size="13" font-weight="700" fill="#111827">17</text><g transform="translate(547.0 137.0) scale(0.2600)"><path d="M28 78 C14 78 6 68 6 55 C6 43 15 34 27 34 C31 20 44 12 58 15 C72 18 81 30 80 43 C92 44 98 54 96 64 C93 75 84 78 74 78 Z" fill="white" stroke="black" stroke-width="5" stroke-linejoin="round"/></g><text x="560" y="182" text-anchor="middle" font-family="Inter, Arial, Helvetica, sans-serif" font-size="15" font-weight="700" fill="#111827">20°</text><text x="616" y="122" text-anchor="middle" font-family="Inter, Arial, Helvetica, sans-serif" font-size="13" font-weight="700" fill="#111827">18</text><g transform="translate(603.0 137.0) scale(0.2600)"><path d="M28 78 C14 78 6 68 6 55 C6 43 15 34 27 34 C31 20 44 12 58 15 C72 18 81 30 80 43 C92 44 98 54 96 64 C93 75 84 78 74 78 Z" fill="white" stroke="black" stroke-width="5" stroke-linejoin="round"/></g><text x="616" y="182" text-anchor="middle" font-family="Inter, Arial, Helvetica, sans-serif" font-size="15" font-weight="700" fill="#111827">19°</text><text x="672" y="122" text-anchor="middle" font-family="Inter, Arial, Helvetica, sans-serif" font-size="13" font-weight="700" fill="#111827">19</text><g transform="translate(659.0 137.0) scale(0.2600)"><path d="M28 78 C14 78 6 68 6 55 C6 43 15 34 27 34 C31 20 44 12 58 15 C72 18 81 30 80 43 C92 44 98 54 96 64 C93 75 84 78 74 78 Z" fill="white" stroke="black" stroke-width="5" stroke-linejoin="round"/></g><text x="672" y="182" text-anchor="middle" font-family="Inter, Arial, Helvetica, sans-serif" font-size="15" font-weight="700" fill="#111827">18°</text><text x="728" y="122" text-anchor="middle" font-family="Inter, Arial, Helvetica, sans-serif" font-size="13" font-weight="700" fill="#111827">20</text><g transform="translate(715.0 137.0) scale(0.2600)"><path d="M28 78 C14 78 6 68 6 55 C6 43 15 34 27 34 C31 20 44 12 58 15 C72 18 81 30 80 43 C92 44 98 54 96 64 C93 75 84 78 74 78 Z" fill="white" stroke="black" stroke-width="5" stroke-linejoin="round"/><line x1="30" y1="82" x2="26" y2="92" stroke="#2563EB" stroke-width="6" stroke-linecap="round"/><line x1="52" y1="82" x2="48" y2="92" stroke="#2563EB" stroke-width="6" stroke-linecap="round"/><line x1="74" y1="82" x2="70" y2="92" stroke="#2563EB" stroke-width="6" stroke-linecap="round"/></g><text x="728" y="182" text-anchor="middle" font-family="Inter, Arial, Helvetica, sans-serif" font-size="15" font-weight="700" fill="#111827">17°</text><text x="728" y="198" text-anchor="middle" font-family="Inter, Arial, Helvetica, sans-serif" font-size="11" fill="#2563EB">9%</text><polyline points="336.0,213.1 392.0,210.0 448.0,210.4 504.0,213.5 560.0,216.6 616.0,218.3 672.0,221.9 728.0,228.0" fill="none" stroke="#BF0000" stroke-width="2" stroke-linecap="round" stroke-linejoin="round"/><circle cx="336.0" cy="213.1" r="2.2" fill="#BF0000"/><circle cx="392.0" cy="210.0" r="2.2" fill="#BF0000"/><circle cx="448.0" cy="210.4" r="2.2" fill="#BF0000"/><circle cx="504.0" cy="213.5" r="2.2" fill="#BF0000"/><circle cx="560.0" cy="216.6" r="2.2" fill="#BF0000"/><circle cx="616.0" cy="218.3" r="2.2" fill="#BF0000"/><circle cx="672.0" cy="221.9" r="2.2" fill="#BF0000"/><circle cx="728.0" cy="228.0" r="2.2" fill="#BF0000"/>

  <!-- ================= Right bottom: 7-day ================= -->
  <text x="308" y="264" class="sec">7-DAY FORECAST</text>
  <rect x="308" y="271" width="26" height="3" rx="1.5" fill="#BF0000"/>
  <rect x="300" y="288" width="4" height="15" rx="2" fill="#BF0000"/><text x="312" y="300" font-family="Inter, Arial, Helvetica, sans-serif" font-size="15" font-weight="700" fill="#111827">Today</text><g transform="translate(393.0 284.0) scale(0.2200)"><path d="M28 78 C14 78 6 68 6 55 C6 43 15 34 27 34 C31 20 44 12 58 15 C72 18 81 30 80 43 C92 44 98 54 96 64 C93 75 84 78 74 78 Z" fill="white" stroke="black" stroke-width="5" stroke-linejoin="round"/><line x1="30" y1="82" x2="26" y2="92" stroke="#2563EB" stroke-width="6" stroke-linecap="round"/><line x1="52" y1="82" x2="48" y2="92" stroke="#2563EB" stroke-width="6" stroke-linecap="round"/><line x1="74" y1="82" x2="70" y2="92" stroke="#2563EB" stroke-width="6" stroke-linecap="round"/></g><text x="428" y="300" font-family="Inter, Arial, Helvetica, sans-serif" font-size="12" fill="#6B7280">Drizzle</text><text x="556" y="300" text-anchor="end" font-family="Inter, Arial, Helvetica, sans-serif" font-size="12" fill="#2563EB">58%</text><text x="600" y="300" text-anchor="end" font-family="Inter, Arial, Helvetica, sans-serif" font-size="13" fill="#6B7280">16°</text><rect x="612" y="291" width="88" height="5" rx="2.5" fill="#D1D5DB"/><rect x="659.8" y="291" width="40.2" height="5" rx="2.5" fill="#BF0000"/><text x="748" y="300" text-anchor="end" font-family="Inter, Arial, Helvetica, sans-serif" font-size="15" font-weight="700" fill="#111827">21°</text><line x1="308" y1="308" x2="756" y2="308" stroke="#9CA3AF" stroke-width="1"/><text x="312" y="324" font-family="Inter, Arial, Helvetica, sans-serif" font-size="15" font-weight="600" fill="#111827">Tue</text><g transform="translate(393.0 308.0) scale(0.2200)"><path d="M28 78 C14 78 6 68 6 55 C6 43 15 34 27 34 C31 20 44 12 58 15 C72 18 81 30 80 43 C92 44 98 54 96 64 C93 75 84 78 74 78 Z" fill="white" stroke="black" stroke-width="5" stroke-linejoin="round"/><line x1="30" y1="82" x2="26" y2="92" stroke="#2563EB" stroke-width="6" stroke-linecap="round"/><line x1="52" y1="82" x2="48" y2="92" stroke="#2563EB" stroke-width="6" stroke-linecap="round"/><line x1="74" y1="82" x2="70" y2="92" stroke="#2563EB" stroke-width="6" stroke-linecap="round"/></g><text x="428" y="324" font-family="Inter, Arial, Helvetica, sans-serif" font-size="12" fill="#6B7280">Drizzle</text><text x="556" y="324" text-anchor="end" font-family="Inter, Arial, Helvetica, sans-serif" font-size="12" fill="#2563EB">100%</text><text x="600" y="324" text-anchor="end" font-family="Inter, Arial, Helvetica, sans-serif" font-size="13" fill="#6B7280">15°</text><rect x="612" y="315" width="88" height="5" rx="2.5" fill="#D1D5DB"/><rect x="650.7" y="315" width="37.2" height="5" rx="2.5" fill="#BF0000"/><text x="748" y="324" text-anchor="end" font-family="Inter, Arial, Helvetica, sans-serif" font-size="15" font-weight="700" fill="#111827">19°</text><line x1="308" y1="332" x2="756" y2="332" stroke="#9CA3AF" stroke-width="1"/><text x="312" y="348" font-family="Inter, Arial, Helvetica, sans-serif" font-size="15" font-weight="600" fill="#111827">Wed</text><g transform="translate(393.0 332.0) scale(0.2200)"><path d="M28 78 C14 78 6 68 6 55 C6 43 15 34 27 34 C31 20 44 12 58 15 C72 18 81 30 80 43 C92 44 98 54 96 64 C93 75 84 78 74 78 Z" fill="white" stroke="black" stroke-width="5" stroke-linejoin="round"/></g><text x="428" y="348" font-family="Inter, Arial, Helvetica, sans-serif" font-size="12" fill="#6B7280">Cloudy</text><text x="600" y="348" text-anchor="end" font-family="Inter, Arial, Helvetica, sans-serif" font-size="13" fill="#6B7280">11°</text><rect x="612" y="339" width="88" height="5" rx="2.5" fill="#D1D5DB"/><rect x="624.9" y="339" width="58.4" height="5" rx="2.5" fill="#2563EB"/><text x="748" y="348" text-anchor="end" font-family="Inter, Arial, Helvetica, sans-serif" font-size="15" font-weight="700" fill="#111827">19°</text><line x1="308" y1="356" x2="756" y2="356" stroke="#9CA3AF" stroke-width="1"/><text x="312" y="372" font-family="Inter, Arial, Helvetica, sans-serif" font-size="15" font-weight="600" fill="#111827">Thu</text><g transform="translate(393.0 356.0) scale(0.2200)"><path d="M28 78 C14 78 6 68 6 55 C6 43 15 34 27 34 C31 20 44 12 58 15 C72 18 81 30 80 43 C92 44 98 54 96 64 C93 75 84 78 74 78 Z" fill="white" stroke="black" stroke-width="5" stroke-linejoin="round"/></g><text x="428" y="372" font-family="Inter, Arial, Helvetica, sans-serif" font-size="12" fill="#6B7280">Cloudy</text><text x="556" y="372" text-anchor="end" font-family="Inter, Arial, Helvetica, sans-serif" font-size="12" fill="#2563EB">86%</text><text x="600" y="372" text-anchor="end" font-family="Inter, Arial, Helvetica, sans-serif" font-size="13" fill="#6B7280">9°</text><rect x="612" y="363" width="88" height="5" rx="2.5" fill="#D1D5DB"/><rect x="612.0" y="363" width="68.3" height="5" rx="2.5" fill="#2563EB"/><text x="748" y="372" text-anchor="end" font-family="Inter, Arial, Helvetica, sans-serif" font-size="15" font-weight="700" fill="#111827">18°</text><line x1="308" y1="380" x2="756" y2="380" stroke="#9CA3AF" stroke-width="1"/><text x="312" y="396" font-family="Inter, Arial, Helvetica, sans-serif" font-size="15" font-weight="600" fill="#111827">Fri</text><g transform="translate(393.0 380.0) scale(0.2200)"><path d="M28 78 C14 78 6 68 6 55 C6 43 15 34 27 34 C31 20 44 12 58 15 C72 18 81 30 80 43 C92 44 98 54 96 64 C93 75 84 78 74 78 Z" fill="white" stroke="black" stroke-width="5" stroke-linejoin="round"/><line x1="30" y1="82" x2="26" y2="92" stroke="#2563EB" stroke-width="6" stroke-linecap="round"/><line x1="52" y1="82" x2="48" y2="92" stroke="#2563EB" stroke-width="6" stroke-linecap="round"/><line x1="74" y1="82" x2="70" y2="92" stroke="#2563EB" stroke-width="6" stroke-linecap="round"/></g><text x="428" y="396" font-family="Inter, Arial, Helvetica, sans-serif" font-size="12" fill="#6B7280">Drizzle</text><text x="556" y="396" text-anchor="end" font-family="Inter, Arial, Helvetica, sans-serif" font-size="12" fill="#2563EB">79%</text><text x="600" y="396" text-anchor="end" font-family="Inter, Arial, Helvetica, sans-serif" font-size="13" fill="#6B7280">14°</text><rect x="612" y="387" width="88" height="5" rx="2.5" fill="#D1D5DB"/><rect x="645.4" y="387" width="53.1" height="5" rx="2.5" fill="#BF0000"/><text x="748" y="396" text-anchor="end" font-family="Inter, Arial, Helvetica, sans-serif" font-size="15" font-weight="700" fill="#111827">21°</text><line x1="308" y1="404" x2="756" y2="404" stroke="#9CA3AF" stroke-width="1"/><text x="312" y="420" font-family="Inter, Arial, Helvetica, sans-serif" font-size="15" font-weight="600" fill="#111827">Sat</text><g transform="translate(393.0 404.0) scale(0.2200)"><path d="M28 78 C14 78 6 68 6 55 C6 43 15 34 27 34 C31 20 44 12 58 15 C72 18 81 30 80 43 C92 44 98 54 96 64 C93 75 84 78 74 78 Z" fill="white" stroke="black" stroke-width="5" stroke-linejoin="round"/></g><text x="428" y="420" font-family="Inter, Arial, Helvetica, sans-serif" font-size="12" fill="#6B7280">Cloudy</text><text x="556" y="420" text-anchor="end" font-family="Inter, Arial, Helvetica, sans-serif" font-size="12" fill="#2563EB">35%</text><text x="600" y="420" text-anchor="end" font-family="Inter, Arial, Helvetica, sans-serif" font-size="13" fill="#6B7280">9°</text><rect x="612" y="411" width="88" height="5" rx="2.5" fill="#D1D5DB"/><rect x="612.0" y="411" width="64.5" height="5" rx="2.5" fill="#2563EB"/><text x="748" y="420" text-anchor="end" font-family="Inter, Arial, Helvetica, sans-serif" font-size="15" font-weight="700" fill="#111827">18°</text><line x1="308" y1="428" x2="756" y2="428" stroke="#9CA3AF" stroke-width="1"/><text x="312" y="444" font-family="Inter, Arial, Helvetica, sans-serif" font-size="15" font-weight="600" fill="#111827">Sun</text><g transform="translate(393.0 428.0) scale(0.2200)"><path d="M28 78 C14 78 6 68 6 55 C6 43 15 34 27 34 C31 20 44 12 58 15 C72 18 81 30 80 43 C92 44 98 54 96 64 C93 75 84 78 74 78 Z" fill="white" stroke="black" stroke-width="5" stroke-linejoin="round"/><line x1="30" y1="82" x2="26" y2="92" stroke="#2563EB" stroke-width="6" stroke-linecap="round"/><line x1="52" y1="82" x2="48" y2="92" stroke="#2563EB" stroke-width="6" stroke-linecap="round"/><line x1="74" y1="82" x2="70" y2="92" stroke="#2563EB" stroke-width="6" stroke-linecap="round"/></g><text x="428" y="444" font-family="Inter, Arial, Helvetica, sans-serif" font-size="12" fill="#6B7280">Drizzle</text><text x="556" y="444" text-anchor="end" font-family="Inter, Arial, Helvetica, sans-serif" font-size="12" fill="#2563EB">38%</text><text x="600" y="444" text-anchor="end" font-family="Inter, Arial, Helvetica, sans-serif" font-size="13" fill="#6B7280">15°</text><rect x="612" y="435" width="88" height="5" rx="2.5" fill="#D1D5DB"/><rect x="653.7" y="435" width="45.5" height="5" rx="2.5" fill="#BF0000"/><text x="748" y="444" text-anchor="end" font-family="Inter, Arial, Helvetica, sans-serif" font-size="15" font-weight="700" fill="#111827">21°</text>
</svg>
